# xmcd
#
# Track frame offsets: 
#        150
#        13409
#        31633
#        49291
#        64873
#        78279
#        96500
#        111441
#        126302
#        140403
#        159406
#        174076
#        187874
#        206164
#        224955
#        240121
#        254998
#        267328
#        283029
#        295806
#        310798
#        326794
#        345610
#
# Disc length: 4766 seconds
#
# Revision: 0
# Processed by: cddbd v1.5.2PL0 Copyright (c) Steve Scherf et al.
# Submitted via: ExactAudioCopyFreeDBPlugin 1.0
#
DISCID=66129c17
DTITLE=Various Artist - Jackie Disco
DYEAR=2011
DGENRE=Pop
TTITLE0=Love Train - The O'Jays
TTITLE1=Can't Get Enough Of Your Love, Babe - Barry White
TTITLE2=Lady Marmalade - Labelle
TTITLE3=Daddy Cool - Boney M
TTITLE4=Love Machine - The Miracles
TTITLE5=The Hustle - Van McCoy and The Soul City Symphony
TTITLE6=Car Wash - Rose Royce
TTITLE7=Rock Your Baby - George McCrae
TTITLE8=Get Down Tonight - KC and The Sunshine Band
TTITLE9=Shirley and Company - Shame Shame Shame
TTITLE10=Kung Fu Fighting - Carl Douglas
TTITLE11=I Love To Love (But My Baby Loves To Dance) - Tina Charles
TTITLE12=You Sexy Thing - Hot Chocolate
TTITLE13=Who Loves You - Frankie Valli and The Four Seasons
TTITLE14=Rock Me Gently - Andy Kim
TTITLE15=Rock The Boat - The Hues Corporation
TTITLE16=Armed and Extremely Dangerous - First Choice
TTITLE17=O-Lettes - Get Dancing - Disco Tex and The Sex
TTITLE18=Swing Your Daddy - Jim Gilstrap
TTITLE19=Hang On In There Baby - Johnny Bristol
TTITLE20=Highwire - Linda Carr and The Love Squad
TTITLE21=Get Up Offa That Thing - James Brown
TTITLE22=Machine Gun - Commodores
EXTD=
EXTT0=
EXTT1=
EXTT2=
EXTT3=
EXTT4=
EXTT5=
EXTT6=
EXTT7=
EXTT8=
EXTT9=
EXTT10=
EXTT11=
EXTT12=
EXTT13=
EXTT14=
EXTT15=
EXTT16=
EXTT17=
EXTT18=
EXTT19=
EXTT20=
EXTT21=
EXTT22=
PLAYORDER=
